<svg xmlns="http://www.w3.org/2000/svg" viewBox="0 0 19 19" width="19" height="19">
  <rect width="19" height="19" fill="white"/>
  <!-- 火箭主体 (蓝色) -->
  <path d="M13 2 L14 2 L14 3 L15 3 L15 4 L16 4 L16 5 L15 5 L15 6 L14 6 L14 7 L13 7 L13 8 L12 8 L12 9 L11 9 L11 10 L10 10 L10 11 L9 11 L9 10 L8 10 L8 9 L7 9 L7 8 L6 8 L6 7 L5 7 L5 6 L4 6 L4 5 L5 5 L5 4 L6 4 L6 5 L7 5 L7 4 L8 4 L8 5 L9 5 L9 4 L10 4 L10 3 L11 3 L11 2 L12 2 Z" fill="#1E90FF" stroke="black" stroke-width="0.5"/>
  <!-- 火箭窗口 (白色) -->
  <rect x="11" y="5" width="2" height="2" fill="white" stroke="black" stroke-width="0.5"/>
  <!-- 火箭尾翼 -->
  <path d="M5 7 L6 7 L6 8 L5 8 Z" fill="#1E90FF" stroke="black" stroke-width="0.5"/>
  <path d="M8 10 L9 10 L9 11 L8 11 Z" fill="#1E90FF" stroke="black" stroke-width="0.5"/>
  <!-- 火焰 (红色/橙色渐变) -->
  <path d="M6 11 L7 11 L7 12 L8 12 L8 13 L7 13 L7 14 L6 14 L6 13 L5 13 L5 12 L6 12 Z" fill="#FF4500" stroke="black" stroke-width="0.5"/>
</svg>
